/* XPM */
static char *bdb5c5a38b0d47dc87bdab8fc118458b[] = {
/* columns rows colors chars-per-pixel */
"32 32 63 1 ",
"  c #008DCC",
". c #0093D4",
"X c #0096D8",
"o c #049BDD",
"O c #0A9EDF",
"+ c #039DE0",
"@ c #0A9FE0",
"# c #0BA3E5",
"$ c #01A2E8",
"% c #09A5E9",
"& c #0EA8EA",
"* c #10A3E3",
"= c #11A6E9",
"- c #13A9EA",
"; c #1CAAEA",
": c #24ACE7",
"> c #25AEEA",
", c #2BAFEA",
"< c #2BB1EB",
"1 c #35B3ED",
"2 c #3BB6ED",
"3 c #43B7ED",
"4 c #43BAEE",
"5 c #4BBCEE",
"6 c #52BEEF",
"7 c #5ABEEE",
"8 c #48BEF0",
"9 c #49C0F0",
"0 c #5AC3F1",
"q c #63C2EF",
"w c #60C5F1",
"e c #6AC6F0",
"r c #6CC9F2",
"t c #70C5F0",
"y c #72CCF3",
"u c #7DC9F1",
"i c #7AD0F4",
"p c #87CFF2",
"a c #85D2F4",
"s c #8AD4F4",
"d c #91D3F4",
"f c #9ED6F4",
"g c #96D9F6",
"h c #9CDAF6",
"j c #A3DDF7",
"k c #ACDFF7",
"l c #B6DFF6",
"z c #A4E0F8",
"x c #ACE1F8",
"c c #B6E2F7",
"v c #B3E3F8",
"b c #BCE6F9",
"n c #C4EAFA",
"m c #CBEAFA",
"M c #D2EEFB",
"N c #D5F0FC",
"B c #DAF1FC",
"V c #E4F5FD",
"C c #E8F6FD",
"Z c #EDF9FE",
"A c #F5FBFE",
"S c #FEFFFF",
"D c None",
/* pixels */
"DDDDDDDDDDD .o#$%%o. DDDDDDDDDDD",
"DDDDDDDDD.@:4rassar4:@XDDDDDDDDD",
"DDDDDDD.*3snCASSSSACna4*.DDDDDDD",
"DDDDDDo<sNSSSSSSSSSSSSBa,oDDDDDD",
"DDDDDO5bSSSSSSSSSSSSSSSSb5oDDDDD",
"DDDDo6mSSSSSSSSSSSSSSSSSSM6ODDDD",
"DDDo5MSSSSSSSBvdiajmASSSSSm5oDDD",
"DD.>vSSSSSSVd3;%#$=<yNSSSSSb<.DD",
"DD*aSSSSSSMq&$$$$$$$%rASSSSSa*DD",
"D.2NSSSSSCq#$$-4rr5;$9ZSSSSSB4.D",
"DOaSSSSSAf=$$>dVAACv0rZSSSSSSs#D",
" :nSSSSSV5$$&aASmjVSVNSSSSSSSn: ",
".5CSSSSSl;$$3NSSd2nSSSSSSSSSSC4.",
"orASSSASd@$$yASSMkCSSSSSSASSSAeo",
"#aSSChhVt$$%gSSSj0NSSSASCjxASmw#",
"$rmVgggf7$$&zSSSp>nSSVvNxjjvnhr%",
"%rgajZAm7$$&jSSSp>nSSAxabAAjsMs&",
"#pBnZSSAq$$%gSSSp>nSSSAMASSACSa#",
"orASSSSAu%$%iASSa>nSSSSSSSSSSAro",
".4CSSSSSf&$$9BSSd1mSSSSSSSSSSZ5.",
" :nSSSSSm,+$-gSSBbZSZCSSSSSSSn: ",
"DOaSSSSSZt$$$<hVASZntyZSSSSSSs*D",
"D.4BSSSSSm2$$$-4rr6>#4VSSSSSB4.D",
"DD*sASSSSSk1$$$$$$$$$0ZSSSSSs*DD",
"DD.<bSSSSSSne<*%$%-,wbSSSSSb<.DD",
"DDDo5MSSSSSSZmjsasjnZSSSSSN5oDDD",
"DDDDo6MSSSSSSSSSSSSSSSSSSM6oDDDD",
"DDDDDO5bSSSSSSSSSSSSSSSSb5ODDDDD",
"DDDDDDo,sBSSSSSSSSSSSSMs,oDDDDDD",
"DDDDDDD.*4anCASSSAAZns4*.DDDDDDD",
"DDDDDDDDD.O>5rasdar5:*XDDDDDDDDD",
"DDDDDDDDDDD .+%%&%o. DDDDDDDDDDD"
};
