/* XPM */
static char *_5d945e3d6d64006b88eb32f4eeee635[] = {
/* columns rows colors chars-per-pixel */
"64 64 110 2 ",
"   c #006794",
".  c #006B9A",
"X  c #007AAE",
"o  c #007DB4",
"O  c #0080B7",
"+  c #0084BD",
"@  c #0086C0",
"#  c #008AC6",
"$  c #008DCA",
"%  c #0090CF",
"&  c #0093D3",
"*  c #0097D9",
"=  c #009ADC",
"-  c #009EE3",
";  c #00A0E6",
":  c #00A2E8",
">  c #0CA5E9",
",  c #0DA8EA",
"<  c #12A6E9",
"1  c #1EA6E8",
"2  c #15AAEB",
"3  c #1CABEA",
"4  c #1FB0ED",
"5  c #23A7E8",
"6  c #22ADEB",
"7  c #2CAEEA",
"8  c #34AEEA",
"9  c #3AAFEA",
"0  c #24B3ED",
"q  c #2AB1EC",
"w  c #35B4EC",
"e  c #3AB5EC",
"r  c #37B8EF",
"t  c #3CB9EE",
"y  c #42B4EB",
"u  c #4CB5EC",
"i  c #46BBEE",
"p  c #4CBDEF",
"a  c #51B6EC",
"s  c #52BFEF",
"d  c #42BEF1",
"f  c #4EBFF0",
"g  c #60BDEE",
"h  c #6BBEEE",
"j  c #5AC1EF",
"k  c #4AC0F1",
"l  c #54C2F1",
"z  c #5CC4F1",
"x  c #57C9F4",
"c  c #71C5EF",
"v  c #7CC3EE",
"b  c #62C4F1",
"n  c #69C7F1",
"m  c #64CBF4",
"M  c #6ECBF3",
"N  c #75C6F0",
"B  c #7AC7F0",
"V  c #73CCF3",
"C  c #7BCEF3",
"Z  c #65D1F5",
"A  c #6CD2F6",
"S  c #74D2F6",
"D  c #7ED1F4",
"F  c #88C7EF",
"G  c #8ECCF1",
"H  c #93CDF1",
"J  c #82D1F4",
"K  c #8ED5F5",
"L  c #87D8F7",
"P  c #8EDAF7",
"I  c #92D7F5",
"U  c #9DD3F3",
"Y  c #96D8F5",
"T  c #9BDAF6",
"R  c #92DCF8",
"E  c #9EDEF9",
"W  c #A3D2F1",
"Q  c #A5DDF7",
"!  c #AADEF6",
"~  c #B1D7F3",
"^  c #B6DCF4",
"/  c #B9DEF6",
"(  c #9EE0F9",
")  c #A7E3FA",
"_  c #ACE2F9",
"`  c #BBE4F7",
"'  c #B3E4F9",
"]  c #BBE6F9",
"[  c #BBE9FB",
"{  c #C5DFF5",
"}  c #C6E1F6",
"|  c #CEE3F6",
" . c #C4E6F8",
".. c #C3E9FA",
"X. c #CAEBFA",
"o. c #D6E7F7",
"O. c #D7E8F7",
"+. c #DAE9F7",
"@. c #D4EEFB",
"#. c #DCEDFA",
"$. c #D5F0FC",
"%. c #DAF1FC",
"&. c #E3EFF9",
"*. c #E4F5FD",
"=. c #EBF5FC",
"-. c #EEF9FE",
";. c #F1F6FC",
":. c #F3FBFE",
">. c #FFFFFF",
",. c None",
/* pixels */
",.,.,.,.,.,.,.,.,.,.,.,.,.,.,.,.,.,.,.,.,.,.,.,.  O $ % ; : : : : : : ; & $ O   ,.,.,.,.,.,.,.,.,.,.,.,.,.,.,.,.,.,.,.,.,.,.,.,.",
",.,.,.,.,.,.,.,.,.,.,.,.,.,.,.,.,.,.,.,.,.o # & = - : : : : : : : : : : : : ; * & # o ,.,.,.,.,.,.,.,.,.,.,.,.,.,.,.,.,.,.,.,.,.",
",.,.,.,.,.,.,.,.,.,.,.,.,.,.,.,.,.,.,.+ & ; ; : : : > 3 e r w e w e e w 3 > : : : : - & # ,.,.,.,.,.,.,.,.,.,.,.,.,.,.,.,.,.,.,.",
",.,.,.,.,.,.,.,.,.,.,.,.,.,.,.,.,.& * ; : : , q f C _ ..*.*.*.*.*.*.*.*.X.! C f q > : : ; = % ,.,.,.,.,.,.,.,.,.,.,.,.,.,.,.,.,.",
",.,.,.,.,.,.,.,.,.,.,.,.,.,.,.# * : : > 6 z Q $.:.:.>.>.>.>.>.>.>.>.>.>.>.>.:.:.$.Q b 6 > : : = # ,.,.,.,.,.,.,.,.,.,.,.,.,.,.,.",
",.,.,.,.,.,.,.,.,.,.,.,.,.,.% - : : w J X.:.>.>.>.>.>.>.>.>.>.>.>.>.>.>.>.>.>.>.>.>.:.X.D w : ; ; % X ,.,.,.,.,.,.,.,.,.,.,.,.,.",
",.,.,.,.,.,.,.,.,.,.,.,.+ = : : 2 V $.:.>.>.>.>.>.>.>.>.>.>.>.>.>.>.>.>.>.>.>.>.>.>.>.>.:.@.M 2 : : = + ,.,.,.,.,.,.,.,.,.,.,.,.",
",.,.,.,.,.,.,.,.,.,.,.$ - : > p ] :.>.>.>.>.>.>.>.>.>.>.>.>.>.>.>.>.>.>.>.>.>.>.>.>.>.>.>.>.:.] p > : ; $ ,.,.,.,.,.,.,.,.,.,.,.",
",.,.,.,.,.,.,.,.,.,.# ; : > C *.>.>.>.>.>.>.>.>.>.>.>.>.>.>.>.>.>.>.>.>.>.>.>.>.>.>.>.>.>.>.>.>.*.C 2 : ; # ,.,.,.,.,.,.,.,.,.,.",
",.,.,.,.,.,.,.,.,.# - ; q Y -.>.>.>.>.>.>.>.>.>.>.>.>.>.>.>.>.>.>.>.>.>.>.>.>.>.>.>.>.>.>.>.>.>.>.:.! q : ; # ,.,.,.,.,.,.,.,.,.",
",.,.,.,.,.,.,.,.# ; : q _ >.>.>.>.>.>.>.>.>.>.>.>.>.>.>.>.>.>.>.>.>.>.>.>.>.>.>.>.>.>.>.>.>.>.>.>.>.>.! q : ; # ,.,.,.,.,.,.,.,.",
",.,.,.,.,.,.,.# ; : q _ >.>.>.>.>.>.>.>.>.>.>.>.>.>.>.>.>.>.>.>.>.>.>.>.>.>.>.>.>.>.>.>.>.>.>.>.>.>.>.>._ q ; ; # ,.,.,.,.,.,.,.",
",.,.,.,.,.,.@ - : q _ >.>.>.>.>.>.>.>.>.>.>.>.>.>.>.>.>.>.:.:.%.%.%.$.%.:.>.>.>.>.>.>.>.>.>.>.>.>.>.>.>.:._ q : - @ ,.,.,.,.,.,.",
",.,.,.,.,.,.= : > Y >.>.>.>.>.>.>.>.>.>.>.>.>.>.>.>.:.@.! V z 8 q q q w j C _ %.:.>.>.>.>.>.>.>.>.>.>.>.>.>._ 2 : = ,.,.,.,.,.,.",
",.,.,.,.,.% : : V -.>.>.>.>.>.>.>.>.>.>.>.>.>.>.:. .N 8 > : : : : : : : : : 2 r L %.>.>.>.>.>.>.>.>.>.>.>.>.:.V > : % ,.,.,.,.,.",
",.,.,.,.@ - : e %.>.>.>.>.>.>.>.>.>.>.>.>.>.>.#.B 5 : : : : : : : : : : : : : : : r _ :.>.>.>.>.>.>.>.>.>.>.>.%.i : ; @ ,.,.,.,.",
",.,.,.,.= : 2 _ >.>.>.>.>.>.>.>.>.>.>.>.>.>.} u > : : : : : : : : : : : : ; : : : : 0 ..>.>.>.>.>.>.>.>.>.>.>.>.] 3 : = ,.,.,.,.",
",.,.,.$ ; > V :.>.>.>.>.>.>.>.>.>.>.>.>.>.^ 7 : : : : : : : : : : ; : : : : : : : : , P >.>.>.>.>.>.>.>.>.>.>.>.:.V > ; # ,.,.,.",
",.,.,.* : q @.>.>.>.>.>.>.>.>.>.>.>.>.>.| 9 : : : : : : : : : > , 2 < < > : : : : : : A :.>.>.>.>.>.>.>.>.>.>.>.>.%.w : * ,.,.,.",
",.,.+ : : n :.>.>.>.>.>.>.>.>.>.>.>.>.&.a : : : : : : : : , i J '  ...` K s 5 : : : : A :.>.>.>.>.>.>.>.>.>.>.>.>.:.J > ; @ ,.,.",
",.,.% : 3 ] >.>.>.>.>.>.>.>.>.>.>.>.>.H > : : : : : : : q E *.>.>.>.>.>.>.:. .c 3 : : S :.>.>.>.>.>.>.>.>.>.>.>.>.>.X.6 : * ,.,.",
",.X - : l :.>.>.>.>.>.>.>.>.>.>.>.>.o.8 : : : : : : : r [ >.>.>.>.>.>.>.>.>.>.:./ i 2 ( >.>.>.>.>.>.>.>.>.>.>.>.>.>.:.s : ; X ,.",
",.# : > E >.>.>.>.>.>.>.>.>.>.>.>.>.F > : : : ; : : 0 ' >.>.>.>.>.:.=.-.>.>.>.>.>.%.! *.>.>.>.>.>.>.>.>.>.>.>.>.>.>.>.E > : # ,.",
",.* ; q @.>.>.>.>.>.>.>.>.>.>.>.>.+.y : : : : : : > D :.>.>.>.>.-.B e l X.>.>.>.>.>.>.>.>.>.>.>.>.>.>.>.>.>.>.>.>.>.>.$.q : * ,.",
". = : l -.>.>.>.>.>.>.>.>.>.>.>.>.~ 1 - : : : : : w $.>.>.>.>.>.| 5 ; > P >.>.>.>.>.>.>.>.>.>.>.>.>.>.>.>.>.>.>.>.>.>.-.f : = . ",
"o ; : J >.>.>.>.>.>.>.>.>.>.>.>.>.v : : : : : : : S :.>.>.>.>.>.+.8 : 2 ) >.>.>.>.>.>.>.>.>.>.>.>.>.>.>.>.>.>.>.>.>.>.>.J : ; o ",
"# - > _ >.>.>.>.>.>.>.>.>.>.>.>.=.u : : : : : : , _ >.>.>.>.>.>.:.` U _ -.>.>.>.>.>.>.>.>.>.>.>.>.>.>.>.>.>.>.>.>.>.>.>.! > ; # ",
"& : 6 X.>.>.>.>.>.>.>.>.>.>.>.>.+.8 : : : : : : q $.>.>.>.>.>.>.>.:.-.:.>.>.>.>.>.>.>.>.>.>.>.>.>.>.>.>.>.>.>.>.>.>.>.>.X.q : % ",
": : w *.>.>.>.>.>.>.:.Q Q -.>.>.{ 5 : : : : ; : k -.>.>.>.>.>.>.;.B d j $.>.>.>.>.>.>.>.>.>.>.>.>.>.-.Q ..:.>.>.>.>.>.-...w : : ",
": : w *.>.>.>.>.>.:.J 6 6 J -.>.~ < : : : : : : x -.>.>.>.>.>.>.&.8 : 2 ' >.>.>.>.>.>.>.>.>.>.>.>.:.J 3 w ` >.>.>.>.:.J j q : : ",
": : w $.:.>.>.>.-.J q Y I q D ;.W > : : : : : : Z :.>.>.>.>.>.>.&.9 : 2 ' >.>.>.>.>.>.@.I =.>.>.:.J p Q J i ' >.>.:.K p E w : : ",
": : w V C -.>.-.C q Y :.:.T q Y W - : : : : : : A :.>.>.>.>.>.>.&.9 : 2 [ >.>.>.>.>.>...r I :.-.J p ..>.:.T i _ :.K p ] =.i : : ",
": : w T p V %.C q T :.>.>.:.! ! U > : : : : : : S >.>.>.>.>.>.>.&.8 : 2 ' >.>.>.>.>.>.>._ i I C p X.>.>.>.:.T i b i ] >.:.l ; : ",
": : w *.@.j w q T :.>.>.>.>.>.>.W > : : : : : : A :.>.>.>.>.>.>.%.9 : 2 [ >.>.>.>.>.>.>.>.! 6 i X.>.>.>.>.>.:.T e Q >.>.*.w : : ",
": : w *.>.@.M Q :.>.>.>.>.>.>.>.W > : : : : : : x :.>.>.>.>.>.>.&.9 : 2 ' >.>.>.>.>.>.>.>.:._ @.>.>.>.>.>.>.>.:.*.:.>.>.*.w : : ",
": : w *.>.>.:.>.>.>.>.>.>.>.>.>.W > : : : : : : p -.>.>.>.>.>.>.&.9 : 2 [ >.>.>.>.>.>.>.>.>.>.>.>.>.>.>.>.>.>.>.>.>.>.>.*.w : ; ",
"& : 6 ..>.>.>.>.>.>.>.>.>.>.>.>.} 1 ; ; : : : : r %.>.>.>.>.>.>.&.w : 2 [ >.>.>.>.>.>.>.>.>.>.>.>.>.>.>.>.>.>.>.>.>.>.>.X.3 : & ",
"# : > _ >.>.>.>.>.>.>.>.>.>.>.>.+.8 ; : : : : : 2 [ >.>.>.>.>.>.&.8 : 2 ' >.>.>.>.>.>.>.>.>.>.>.>.>.>.>.>.>.>.>.>.>.>.>._ > : # ",
"o ; : J >.>.>.>.>.>.>.>.>.>.>.>.=.u : : : : : : : L >.>.>.>.>.>.&.8 : 2 ' >.>.>.>.>.>.>.>.>.>.>.>.>.>.>.>.>.>.>.>.>.>.>.Y : - O ",
". = : s -.>.>.>.>.>.>.>.>.>.>.>.>.v : : : : : : : d *.>.>.>.>.>.&.9 : 2 [ >.>.>.>.>.>.>.>.>.>.>.>.>.>.>.>.>.>.>.>.>.>.:.j : - . ",
",.* : q %.>.>.>.>.>.>.>.>.>.>.>.>.~ < - : : : : : , ( >.>.>.>.>.:.! C K *.>.>.>.>.>.>.>.>.>.>.>.>.>.>.>.>.>.>.>.>.>.>.$.q : * ,.",
",.# : > E >.>.>.>.>.>.>.>.>.>.>.>.+.y - : : : : : : r $.>.>.>.>.>.>.>.>.>.>.>.>.>.:.%.-.>.>.>.>.>.>.>.>.>.>.>.>.>.>.>.! < : # ,.",
",.X - : f :.>.>.>.>.>.>.>.>.>.>.>.>.F : : : : : : : : l $.:.>.>.>.>.>.>.>.>.>.>.%.G 9 R >.>.>.>.>.>.>.>.>.>.>.>.>.>.:.b : - X ,.",
",.,.% : 6 X.>.>.>.>.>.>.>.>.>.>.>.>.o.8 : : : : : : : > t _ -.>.>.>.>.>.>.:.%.Y y > : m :.>.>.>.>.>.>.>.>.>.>.>.>.>.X.6 : * ,.,.",
",.,.+ ; > J :.>.>.>.>.>.>.>.>.>.>.>.>.H > : : : : : : : : 2 p L ' ......U n w > : : : z :.>.>.>.>.>.>.>.>.>.>.>.>.:.J > ; # ,.,.",
",.,.,.* : w $.>.>.>.>.>.>.>.>.>.>.>.>.=.h > : : ; : : : : : : : , 2 2 2 > : : : : : : z :.>.>.>.>.>.>.>.>.>.>.>.>.$.w : * ,.,.,.",
",.,.,.# ; > V :.>.>.>.>.>.>.>.>.>.>.>.>.#.a : : : : : : : : : : ; : : : - : : : : : : Z :.>.>.>.>.>.>.>.>.>.>.>.:.V > : % ,.,.,.",
",.,.,.,.= : 3 ] >.>.>.>.>.>.>.>.>.>.>.>.>.O.g > : : : : : : : : : : : : : : : : : : , R >.>.>.>.>.>.>.>.>.>.>.>.] 3 : = ,.,.,.,.",
",.,.,.,.@ ; : i %.>.>.>.>.>.>.>.>.>.>.>.>.>.=.H q : : : : : : : : : ; : : : : : : 3 A *.>.>.>.>.>.>.>.>.>.>.>.*.f : ; O ,.,.,.,.",
",.,.,.,.,.% : : V :.>.>.>.>.>.>.>.>.>.>.>.>.>.:. .B e < : : : : : : : : : : , q m ' :.>.>.>.>.>.>.>.>.>.>.>.:.C > : % ,.,.,.,.,.",
",.,.,.,.,.,.= ; 2 ! >.>.>.>.>.>.>.>.>.>.>.>.>.>.>.:.#.! B b e q q q q t b S _ $.:.>.>.>.>.>.>.>.>.>.>.>.>.>.! 2 : - o ,.,.,.,.,.",
",.,.,.,.,.,.@ - : q _ >.>.>.>.>.>.>.>.>.>.>.>.>.>.>.>.>.:.:.*.%.%.%.%.*.:.>.>.>.>.>.>.>.>.>.>.>.>.>.>.>.>._ q : - # ,.,.,.,.,.,.",
",.,.,.,.,.,.,.$ - : q _ >.>.>.>.>.>.>.>.>.>.>.>.>.>.>.>.>.>.>.>.>.>.>.>.>.>.>.>.>.>.>.>.>.>.>.>.>.>.>.:.' q ; ; $ ,.,.,.,.,.,.,.",
",.,.,.,.,.,.,.,.# ; ; q _ >.>.>.>.>.>.>.>.>.>.>.>.>.>.>.>.>.>.>.>.>.>.>.>.>.>.>.>.>.>.>.>.>.>.>.>.>.>._ q ; ; # ,.,.,.,.,.,.,.,.",
",.,.,.,.,.,.,.,.,.% ; : q ! :.>.>.>.>.>.>.>.>.>.>.>.>.>.>.>.>.>.>.>.>.>.>.>.>.>.>.>.>.>.>.>.>.>.>.:.! q ; ; & ,.,.,.,.,.,.,.,.,.",
",.,.,.,.,.,.,.,.,.,.# ; ; 2 C *.>.>.>.>.>.>.>.>.>.>.>.>.>.>.>.>.>.>.>.>.>.>.>.>.>.>.>.>.>.>.>.>.*.C 2 : ; # ,.,.,.,.,.,.,.,.,.,.",
",.,.,.,.,.,.,.,.,.,.,.% ; : > p ] :.>.>.>.>.>.>.>.>.>.>.>.>.>.>.>.>.>.>.>.>.>.>.>.>.>.>.>.>.:.] p > : ; % ,.,.,.,.,.,.,.,.,.,.,.",
",.,.,.,.,.,.,.,.,.,.,.,.$ = : : 2 M @.:.>.>.>.>.>.>.>.>.>.>.>.>.>.>.>.>.>.>.>.>.>.>.>.>.:.@.M 3 : : = # ,.,.,.,.,.,.,.,.,.,.,.,.",
",.,.,.,.,.,.,.,.,.,.,.,.,.X & ; : > q D X.:.>.>.>.>.>.>.>.>.>.>.>.>.>.>.>.>.>.>.>.>.:.X.J w : : ; & X ,.,.,.,.,.,.,.,.,.,.,.,.,.",
",.,.,.,.,.,.,.,.,.,.,.,.,.,.,.# = ; ; > 6 z Q $.-.>.>.>.>.>.>.>.>.>.>.>.>.>.>.:.%.Q z 6 > ; : = # ,.,.,.,.,.,.,.,.,.,.,.,.,.,.,.",
",.,.,.,.,.,.,.,.,.,.,.,.,.,.,.,.,.$ * ; : : , q f K _ ..*.*.*.-.-.*.*.*..._ I b w > : : : = $ ,.,.,.,.,.,.,.,.,.,.,.,.,.,.,.,.,.",
",.,.,.,.,.,.,.,.,.,.,.,.,.,.,.,.,.,.,.# & - ; : : > > 3 w e e p f r e w 3 > > : : : - * # ,.,.,.,.,.,.,.,.,.,.,.,.,.,.,.,.,.,.,.",
",.,.,.,.,.,.,.,.,.,.,.,.,.,.,.,.,.,.,.,.,.o # * - ; ; : : : : : : : : : : ; ; = & # o ,.,.,.,.,.,.,.,.,.,.,.,.,.,.,.,.,.,.,.,.,.",
",.,.,.,.,.,.,.,.,.,.,.,.,.,.,.,.,.,.,.,.,.,.,.,.. + $ = : : : : : : : : = $ + . ,.,.,.,.,.,.,.,.,.,.,.,.,.,.,.,.,.,.,.,.,.,.,.,."
};
