/* XPM */
static char *_8a9f0a00dd343cdf67dead5d9d6899e[] = {
/* columns rows colors chars-per-pixel */
"16 16 136 2 ",
"   c #26A6DE",
".  c #27A7DE",
"X  c #27A7DF",
"o  c #28A7DF",
"O  c #27A8DF",
"+  c #29A8DF",
"@  c #06A4E9",
"#  c #08A3E8",
"$  c #09A5E9",
"%  c #10A6E9",
"&  c #10A7E9",
"*  c #11A9EA",
"=  c #27A7E0",
"-  c #28A7E0",
";  c #25A8E0",
":  c #27A8E0",
">  c #27A8E1",
",  c #28A8E0",
"<  c #23AEEB",
"1  c #23AFEB",
"2  c #36AEE3",
"3  c #36AFE4",
"4  c #28B0EB",
"5  c #2CB1EC",
"6  c #39B7EE",
"7  c #3CB5EC",
"8  c #3DB6EC",
"9  c #46B6E7",
"0  c #40BAEE",
"q  c #42BAEE",
"w  c #43BAEE",
"e  c #49B8E8",
"r  c #49B8E9",
"t  c #4AB8E8",
"y  c #4AB9E9",
"u  c #48BCEF",
"i  c #4BBCEE",
"p  c #4FBEEF",
"a  c #50BEEF",
"s  c #52BFEF",
"d  c #57BFEF",
"f  c #4DBFF0",
"g  c #5AC2EF",
"h  c #5AC2F0",
"j  c #5DC3F0",
"k  c #5FC4F0",
"l  c #63C3EF",
"z  c #75CAEF",
"x  c #77CBEF",
"c  c #61C4F1",
"v  c #6DCAF2",
"b  c #6FCAF2",
"n  c #71C9F1",
"m  c #71C9F2",
"M  c #77CBF0",
"N  c #78CBF0",
"B  c #82D0F3",
"V  c #8BD3F4",
"C  c #91D6F4",
"Z  c #94D5F4",
"A  c #97DAF7",
"S  c #9CDCF7",
"D  c #A3DBF6",
"F  c #A7DDF7",
"G  c #A7DEF6",
"H  c #A8DCF6",
"J  c #A8DEF6",
"K  c #A9DEF6",
"L  c #A9DFF6",
"P  c #AAE0F7",
"I  c #B0E1F8",
"U  c #B4E3F8",
"Y  c #B5E4F8",
"T  c #B9E6F9",
"R  c #BDE7F9",
"E  c #BFE7F9",
"W  c #BEE8FA",
"Q  c #BFE9FA",
"!  c #C0E8F9",
"~  c #C1E8F9",
"^  c #C2E8F9",
"/  c #C1E9FA",
"(  c #C2E9FA",
")  c #C3E9FA",
"_  c #C4E8F9",
"`  c #C7E9FA",
"'  c #C5EAFA",
"]  c #C6EBFA",
"[  c #C9EBFA",
"{  c #CBECFA",
"}  c #CDECFA",
"|  c #CDEDFB",
" . c #D0EDFA",
".. c #D3EFFB",
"X. c #D3EFFC",
"o. c #D7F0FC",
"O. c #D9F0FB",
"+. c #D9F1FC",
"@. c #DBF2FC",
"#. c #DEF3FC",
"$. c #E0F4FC",
"%. c #E0F4FD",
"&. c #E2F4FC",
"*. c #E3F4FC",
"=. c #E3F5FC",
"-. c #E4F5FD",
";. c #E6F6FD",
":. c #E7F6FD",
">. c #E7F7FD",
",. c #EAF8FE",
"<. c #EEF8FD",
"1. c #EFF8FD",
"2. c #F0F9FD",
"3. c #F1FAFE",
"4. c #F2FAFE",
"5. c #F3FAFE",
"6. c #F3FBFE",
"7. c #F4FAFD",
"8. c #F5FAFE",
"9. c #F4FBFE",
"0. c #F5FBFE",
"q. c #F7FBFE",
"w. c #F5FCFE",
"e. c #F6FCFE",
"r. c #F7FCFE",
"t. c #F8FCFE",
"y. c #F9FDFE",
"u. c #FAFDFF",
"i. c #FBFDFF",
"p. c #FBFEFF",
"a. c #FCFEFF",
"s. c #FDFEFF",
"d. c #FEFEFF",
"f. c #FEFFFF",
"g. c gray100",
"h. c None",
/* pixels */
"h.h.h.h.h.+ e k k e + h.h.h.h.h.",
"h.h.h.> N / :.2.2.;./ N > h.h.h.",
"h.h.2 J e.a.a.u.q.u.a.e.J 2 h.h.",
"h.> G a.a.1.D c f n ) a.a.J > h.",
"h.z e.a.2.n % < w 4 f 1.a.e.N h.",
"  E a.a.J % 6 / ) ) P 2.a.a./ + ",
"e ;.u.1.l # A q.J &.a.a.t.a.;.9 ",
"s ..E I 8 * W q.V +.q.@.) ) / i ",
"s Y O.O.6 * W e.n | u.} &.&.{ g ",
"e *.a.t.d @ S e.B X.a.a.a.a.;.e ",
". / a.a.Z # 8 ] ..{ U 2.a.a./ + ",
"h.N e.a.*.d $ < w 5 u ;.a.q.M h.",
"h.> J a.a.;.C g s b T u.a.J + h.",
"h.h.3 J e.a.a.u.2.a.a.e.P 3 h.h.",
"h.h.h., M / ,.2.e.>./ N , h.h.h.",
"h.h.h.h.h., e k k e + h.h.h.h.h."
};
